<?xml version="1.0" encoding="UTF-8"?>
<svg width="16pt" height="16pt" version="1.0" viewBox="0 0 16 16" xmlns="http://www.w3.org/2000/svg">
  <g transform="translate(0.000000,16.000000) scale(0.100000,-0.100000)" fill="#000000" stroke="none">
    <path d="M21 93 c-13 -46 -14 -63 -2 -63 4 0 13 22 18 50 12 58 -1 68 -16 13z"/>
    <path d="M71 121 c-10 -7 -11 -9 0 -13 10 -3 9 -11 -3 -35 -18 -37 -15 -43 23
    -43 33 0 59 23 59 54 0 40 -43 60 -79 37z m57 -27 c3 -24 -26 -60 -38 -47 -4
    4 -6 23 -3 41 6 38 36 42 41 6z"/>
  </g>
</svg>
